# xmcd
#
# Track frame offsets:
#	150
#	11054
#	30106
#	43734
#	64253
#	78817
#	97755
#	116018
#	130345
#	149727
#	166981
#	184963
#	204015
#	223920
#	240765
#
# Disc length: 3455 seconds
#
# Revision: 1
# Processed by: cddbd v1.5.2PL0 Copyright (c) Steve Scherf et al.
# Submitted via: audiograbber 1.83.01
#
DISCID=c50d7d0f
DTITLE=Various Artist - CB-E5-29
DYEAR=1900
DGENRE=Karaoke
TTITLE0=Tracy Byrd - Drinkin' Bone
TTITLE1=Toby Keith - I Love This Bar
TTITLE2=Terri Clark - I Wanna Do It All
TTITLE3=Keith Urban - Your Everything
TTITLE4=Lee Ann Womack - The Wrong Girl
TTITLE5=Rascal Flatts - I Melt
TTITLE6=Alan Jackson with Jimmy Buffett - It's Five O'Clock Somewhere
TTITLE7=Amy Dalley - Men Don't Change
TTITLE8=Mark Wills - And The Crowd Goes Wild
TTITLE9=Patty Loveless - Lovin' All Night
TTITLE10=Brad Paisley - Little Moments
TTITLE11=Julie Roberts - Break Down Here
TTITLE12=Tim McGraw - Real Good Man
TTITLE13=Terri Clark - Girls Lie Too
TTITLE14=Lonestar - Let's Be Us Again
EXTD=
EXTT0=
EXTT1=
EXTT2=
EXTT3=
EXTT4=
EXTT5=
EXTT6=
EXTT7=
EXTT8=
EXTT9=
EXTT10=
EXTT11=
EXTT12=
EXTT13=
EXTT14=
PLAYORDER=
